<svg xmlns="http://www.w3.org/2000/svg" width="180" height="180" fill="none">
    <g clip-path="url(#a)">
        <rect width="180" height="180" fill="#3C593C" rx="28"/>
        <path fill="#B9CFBD" d="M72.333 31.868V23h35.334v8.868zm13.25 66.064h8.834V63.94h-8.834zM90 147c-7.263 0-14.109-1.404-20.537-4.212-6.43-2.808-12.048-6.626-16.857-11.454-4.81-4.828-8.613-10.469-11.41-16.923C38.399 107.957 37 101.085 37 93.794s1.399-14.164 4.196-20.618c2.797-6.453 6.6-12.094 11.41-16.922 4.809-4.828 10.428-8.646 16.857-11.454C75.89 41.992 82.737 40.588 90 40.588c6.576 0 12.759 1.108 18.55 3.325s10.944 5.296 15.458 9.237l7.509-7.537 6.183 6.207-7.508 7.538c3.533 3.94 6.551 8.72 9.054 14.336S143 86.01 143 93.794c0 7.291-1.399 14.163-4.196 20.617-2.797 6.454-6.6 12.095-11.41 16.923-4.809 4.828-10.428 8.646-16.857 11.454C104.109 145.596 97.263 147 90 147m0-8.868c12.269 0 22.697-4.31 31.285-12.932 8.588-8.621 12.882-19.09 12.882-31.406 0-12.316-4.294-22.785-12.882-31.407-8.588-8.621-19.016-12.932-31.285-12.932-12.269 0-22.697 4.311-31.285 12.932-8.588 8.622-12.882 19.09-12.882 31.407 0 12.316 4.294 22.785 12.882 31.406 8.588 8.622 19.016 12.932 31.285 12.932"/>
    </g>
    <defs>
        <clipPath id="a">
            <path fill="#fff" d="M0 0h180v180H0z"/>
        </clipPath>
    </defs>
</svg>
